{"title":"Parched (2016) 1CD WebRip x264 AAC 5.1 ESub -DDR","uid":15620072,"size":739957659,"categoryP":"video","categoryS":"movies","magnet":"?xt=urn:btih:c9c570afe09f851c0884b12174eca2557caecb8e&amp;dn=Parched+%282016%29+1CD+WebRip+x264+AAC+5.1+ESub+-DDR&amp;tr=udp%3A%2F%2Ftracker.leechers-paradise.org%3A6969&amp;tr=udp%3A%2F%2Fzer0day.ch%3A1337&amp;tr=udp%3A%2F%2Fopen.demonii.com%3A1337&amp;tr=udp%3A%2F%2Ftracker.coppersurfer.tk%3A6969&amp;tr=udp%3A%2F%2Fexodus.desync.com%3A6969","seeders":51,"leechers":51,"uploader":"SaM","files":3,"time":1471872387,"description":"\n** PARCHED **\r\n\r\n** 2016**\r\n\r\n** 1CD / WEBRip / x264 / AAC 5.1 **\r\n\r\n** English Hardcoded Subtitle(s) **\r\n\r\n** WARNING: Not recommended for under-aged children !!!\r\nContains explicit harsh language and sex sceens.\r\n**\r\n\r\n\r\n[ SCREENS ]\r\n \nhttp://extraimago.com/image/w1di \nhttp://extraimago.com/image/w1dm \nhttp://extraimago.com/image/w1dR \nhttp://extraimago.com/image/w1dQ \nhttp://extraimago.com/image/w1dL \nhttp://extraimago.com/image/w1dy \nhttp://extraimago.com/image/w1dq \nhttp://extraimago.com/image/w1dS \nhttp://extraimago.com/image/w1dO \nhttp://extraimago.com/image/w1dE \nhttp://extraimago.com/image/w1d1\r\n\r\n[ Info ]\r\nSource : Untouched WEBHD @ M2TV\r\n\r\nFormat : Matroska\r\nFile size : 697 MiB\r\nDuration : 1h 56mn\r\nOverall bit rate mode : Variable\r\nOverall bit rate : 834 Kbps\r\n\r\nVideo\r\nFormat : AVC\r\nFormat/Info : Advanced Video Codec\r\nFormat profile :   \r\nFormat settings, CABAC : Yes\r\nFormat settings, ReFrames : 16 frames\r\nCodec ID : V_MPEG4/ISO/AVC\r\nDuration : 1h 56mn\r\nBit rate mode : Variable\r\nBit rate : 704 Kbps\r\nMaximum bit rate : 62.5 Mbps\r\nWidth : 720 pixels\r\nHeight : 300 pixels\r\nDisplay aspect ratio : 2.40:1\r\nFrame rate mode : Constant\r\nFrame rate : 23.976 (24000/1001) fps\r\ncolor space : YUV\r\nChroma subsampling : 4:2:0\r\nBit depth : 8 bits\r\nScan type : Progressive\r\nBits/(Pixel*Frame) : 0.136\r\nStream size : 588 MiB (84%)\r\n\r\nAudio\r\nFormat : AAC\r\nFormat/Info : Advanced Audio Codec\r\nFormat profile : LC\r\nCodec ID : A_AAC\r\nDuration : 1h 56mn\r\nBit rate : 128 Kbps\r\nChannel(s) : 6 channels\r\nChannel positions : Front: L C R, Side: L R, LFE\r\nSampling rate : 48.0 KHz\r\nFrame rate : 46.875 fps (1024 spf)\r\nCompression mode : Lossy\r\nDelay relative to video : 9ms\r\nStream size : 107 MiB (15%)\r\nLanguage : Hindi\r\nDefault : Yes\r\nForced : No\r\n\r\n\r\nChapters = None on source","torrent":{"xt":"urn:btih:c9c570afe09f851c0884b12174eca2557caecb8e","amp;dn":"Parched+%282016%29+1CD+WebRip+x264+AAC+5.1+ESub+-DDR","amp;tr":["udp%3A%2F%2Ftracker.leechers-paradise.org%3A6969","udp%3A%2F%2Fzer0day.ch%3A1337","udp%3A%2F%2Fopen.demonii.com%3A1337","udp%3A%2F%2Ftracker.coppersurfer.tk%3A6969","udp%3A%2F%2Fexodus.desync.com%3A6969"],"infoHash":"c9c570afe09f851c0884b12174eca2557caecb8e","infoHashBuffer":{"type":"Buffer","data":[201,197,112,175,224,159,133,28,8,132,177,33,116,236,162,85,124,174,203,142]},"announce":[],"urlList":[]}}